<svg version="1.1" id="Layer_1" xmlns="http://www.w3.org/2000/svg" xmlns:xlink="http://www.w3.org/1999/xlink" x="0px" y="0px"
	 width="100%" viewBox="0 0 1284 910" enable-background="new 0 0 1284 910" xml:space="preserve">
<path fill="#FFFFFF" opacity="1.000000" stroke="none" 
	d="
M764.000000,911.000000 
	C509.362244,911.000000 255.224472,911.000000 1.043358,911.000000 
	C1.043358,607.730103 1.043358,304.460144 1.043358,1.095103 
	C428.887909,1.095103 856.775879,1.095103 1284.831909,1.095103 
	C1284.831909,304.333252 1284.831909,607.666626 1284.831909,911.000000 
	C1111.459839,911.000000 937.979919,911.000000 764.000000,911.000000 
M717.034302,87.138878 
	C715.331604,87.721695 713.629822,88.810875 711.926147,88.813805 
	C659.607727,88.903839 607.289001,88.839912 554.970825,88.972343 
	C550.510681,88.983635 548.604980,87.941734 548.974609,83.146141 
	C549.377502,77.918465 549.066040,72.635727 549.066040,67.324219 
	C543.020203,67.324219 537.779297,67.324219 531.945068,67.324219 
	C531.945068,74.541992 531.945068,81.443520 531.945068,89.067825 
	C498.003754,89.067825 464.652802,89.067825 431.389313,89.067825 
	C431.389313,205.678223 431.389313,321.547852 431.389313,437.554382 
	C565.994019,437.554382 700.203125,437.554382 834.586792,437.554382 
	C834.586792,321.242065 834.586792,205.244003 834.586792,88.724373 
	C801.253784,88.724373 768.336426,88.724373 734.789062,88.724373 
	C734.789062,81.316109 734.789062,74.416084 734.789062,67.397552 
	C728.608398,67.397552 723.071472,67.397552 717.099854,67.397552 
	C717.099854,73.931870 717.099854,80.069695 717.034302,87.138878 
M744.500000,525.026550 
	C883.981140,525.026550 1023.462341,525.026611 1162.943481,525.025513 
	C1164.776489,525.025452 1166.616333,525.110168 1168.441162,524.983765 
	C1175.620361,524.486145 1179.435181,520.216736 1179.396362,512.820679 
	C1179.358154,505.499817 1175.373413,501.275177 1168.162231,500.952667 
	C1166.665283,500.885712 1165.162964,500.934113 1163.663208,500.934113 
	C809.877747,500.933716 456.092224,500.933685 102.306747,500.934174 
	C100.806976,500.934174 99.304672,500.885529 97.807869,500.954041 
	C90.608002,501.283508 86.633881,505.518890 86.603714,512.850708 
	C86.573318,520.239502 90.397827,524.497620 97.588844,524.985474 
	C99.413956,525.109253 101.253616,525.025574 103.086586,525.025574 
	C316.557709,525.026611 530.028870,525.026611 744.500000,525.026550 
M448.500427,735.117737 
	C476.249756,735.117737 503.999084,735.117737 532.922974,735.117737 
	C532.922974,722.350098 533.926697,710.133850 532.699585,698.145935 
	C530.594666,677.583557 521.935059,660.375488 502.470978,650.605164 
	C488.603241,643.644043 473.623016,642.946716 458.539429,644.216003 
	C429.705200,646.642517 410.645721,662.944336 405.464935,691.238220 
	C401.428284,713.283386 401.496643,735.785645 405.365967,757.858643 
	C409.453064,781.174133 423.872955,796.181396 446.863525,802.125244 
	C454.522827,804.105408 462.584808,804.968994 470.512726,805.381653 
	C489.659790,806.378418 507.941071,802.685303 524.908447,793.475037 
	C526.389587,792.671143 528.312622,791.196899 528.528992,789.801208 
	C529.530334,783.343079 530.000977,776.802612 530.734680,769.573303 
	C528.515747,770.699158 527.063477,771.426270 525.619812,772.169983 
	C504.940552,782.822266 483.122498,786.504883 460.264801,781.954895 
	C435.685059,777.062012 426.319916,757.125183 429.672302,735.117798 
	C435.568634,735.117798 441.534637,735.117798 448.500427,735.117737 
M116.990440,652.435974 
	C103.649429,660.655518 95.208099,672.554199 92.097046,687.756409 
	C87.307808,711.158936 87.365814,734.893066 91.383553,758.279785 
	C95.320061,781.193848 109.681358,796.008606 132.230789,801.965881 
	C140.195831,804.070129 148.601395,805.000916 156.858047,805.407654 
	C175.832245,806.342712 193.956177,802.606445 210.774124,793.490173 
	C212.253448,792.688232 214.174438,791.216797 214.391022,789.823364 
	C215.395676,783.359558 215.871368,776.813660 216.617569,769.502136 
	C214.664780,770.550232 213.538239,771.171082 212.397476,771.764709 
	C191.457642,782.661743 169.344406,786.585022 146.118744,781.955505 
	C122.133522,777.174683 112.008224,757.660278 115.699493,734.920898 
	C149.645142,734.920898 183.689758,734.920898 218.973618,734.920898 
	C218.973618,722.878296 219.821976,711.339661 218.793091,699.971008 
	C216.788467,677.820801 208.071960,658.890076 186.323639,649.873596 
	C163.444748,640.388367 140.197723,641.147400 116.990440,652.435974 
M567.319458,700.500000 
	C567.319458,734.255005 567.319458,768.009949 567.319458,801.678223 
	C576.334778,801.678223 584.570801,801.678223 593.037231,801.678223 
	C593.037231,799.474670 593.037231,797.655029 593.037231,795.835388 
	C593.037231,765.336182 593.218750,734.835388 592.954529,704.338501 
	C592.836487,690.722717 598.862183,680.796021 609.525391,673.195312 
	C620.264709,665.540283 632.397156,664.686218 644.910828,666.597656 
	C657.237488,668.480469 665.119141,675.749329 668.076172,687.741821 
	C669.616272,693.988098 670.648682,700.526001 670.706543,706.942993 
	C670.975586,736.773132 670.823792,766.606995 670.822632,796.439575 
	C670.822571,798.197876 670.822632,799.956116 670.822632,801.865784 
	C679.647888,801.865784 687.763367,801.865784 696.403442,801.865784 
	C696.403442,800.041626 696.403259,798.406494 696.403442,796.771362 
	C696.406555,765.772156 696.491699,734.772644 696.344482,703.774109 
	C696.314514,697.473145 695.867493,691.098389 694.813354,684.893433 
	C692.482727,671.174316 687.217712,659.008789 674.677246,651.305664 
	C665.992981,645.971191 656.290466,644.555359 646.405518,644.316589 
	C621.767334,643.721497 601.574585,654.052856 593.528503,679.648865 
	C593.340271,680.247742 592.817871,680.741516 592.538208,681.155701 
	C592.538208,670.156311 592.538208,659.226440 592.538208,648.240112 
	C584.187500,648.240112 575.967529,648.240112 567.319763,648.240112 
	C567.319763,665.561951 567.319763,682.531006 567.319458,700.500000 
M1068.660156,671.787476 
	C1066.078735,663.898254 1063.497437,656.009033 1060.976807,648.305542 
	C1052.097168,648.305542 1043.573608,648.305542 1034.569580,648.305542 
	C1035.331787,650.701660 1035.898560,652.592651 1036.533081,654.460693 
	C1041.026978,667.691467 1045.536499,680.916870 1050.037354,694.145203 
	C1061.075195,726.585876 1072.165649,759.008850 1083.068359,791.494812 
	C1084.234009,794.967651 1085.891357,796.300232 1089.483643,795.945068 
	C1092.505615,795.646301 1095.580688,795.883545 1099.105835,795.883545 
	C1092.093872,816.293640 1085.367310,835.873108 1078.451294,856.003906 
	C1086.085205,856.003906 1092.913940,855.769958 1099.715576,856.097839 
	C1103.380249,856.274536 1104.841797,854.947632 1106.007568,851.578308 
	C1128.853516,785.553711 1151.830933,719.574585 1174.766968,653.581238 
	C1175.350830,651.901489 1175.774902,650.166260 1176.440430,647.884338 
	C1168.846924,647.884338 1161.858643,648.125244 1154.898438,647.787292 
	C1151.167236,647.606079 1149.833740,649.062988 1148.716797,652.403259 
	C1138.219482,683.799011 1127.535767,715.132385 1116.899902,746.481812 
	C1113.693604,755.932434 1110.514648,765.392883 1107.195435,774.803772 
	C1106.765015,776.024231 1105.566528,776.973938 1104.723877,778.049072 
	C1103.765381,776.915405 1102.775513,775.806030 1101.866455,774.633911 
	C1101.573730,774.256348 1101.473022,773.720215 1101.320068,773.245178 
	C1090.510376,739.678650 1079.704224,706.111023 1068.660156,671.787476 
M951.412231,593.840271 
	C942.602844,597.870605 936.515991,604.440186 933.710938,613.705994 
	C929.143738,628.792725 932.293579,642.136902 944.880615,653.941650 
	C932.866211,653.941650 922.334045,653.941650 911.840088,653.941650 
	C911.840088,660.842896 911.840088,667.276672 911.840088,674.269653 
	C920.391418,674.269653 928.627197,674.269653 937.241150,674.269653 
	C937.241150,717.106323 937.241150,759.375488 937.241150,801.680054 
	C945.855469,801.680054 954.063293,801.680054 962.745850,801.680054 
	C962.745850,759.045349 962.745850,716.791687 962.745850,674.026550 
	C972.515625,674.026550 981.808228,674.026550 991.100830,674.026550 
	C1000.523193,674.026550 1009.945557,674.026550 1019.493408,674.026550 
	C1020.309448,666.881531 1021.040222,660.482666 1021.833984,653.532593 
	C1019.620667,653.532593 1017.822754,653.532593 1016.024841,653.532593 
	C1001.024963,653.532593 986.025024,653.532593 971.025146,653.532593 
	C959.411377,653.532593 959.411316,653.532593 957.288025,641.895142 
	C954.778381,628.140381 959.571411,617.157837 970.585999,612.799072 
	C974.681396,611.178406 979.258667,610.438232 983.682495,610.048279 
	C996.783020,608.893250 1009.491150,611.213867 1022.471802,615.809998 
	C1021.642517,609.426147 1021.013062,603.667358 1020.054382,597.963989 
	C1019.861023,596.813293 1018.621094,595.306580 1017.525391,594.917847 
	C995.888367,587.243408 974.085754,585.452881 951.412231,593.840271 
M813.603760,781.341919 
	C806.320862,781.725769 798.964417,782.949768 791.770264,782.319946 
	C776.449219,780.978577 770.292297,774.559753 768.223511,759.475220 
	C767.953430,757.506104 767.977905,755.487610 767.976746,753.491882 
	C767.961975,727.674072 767.963501,701.856201 767.976807,676.038391 
	C767.977722,674.416809 768.110779,672.795349 768.203247,670.699890 
	C770.143677,670.699890 771.770325,670.699890 773.396912,670.699890 
	C790.220154,670.699890 807.044128,670.770874 823.865417,670.589478 
	C825.540222,670.571350 828.448303,669.249084 828.655090,668.136414 
	C829.734619,662.328491 830.125854,656.392639 830.830139,649.813782 
	C809.480774,649.813782 788.620911,649.813782 767.981323,649.813782 
	C767.981323,634.899231 767.981323,620.635437 767.981323,605.888794 
	C759.539490,607.014465 751.227295,608.122925 742.665710,609.264587 
	C742.665710,622.984314 742.665710,636.241516 742.665710,650.042969 
	C734.134521,650.042969 725.903198,650.042969 717.561035,650.042969 
	C717.561035,657.147522 717.561035,663.697021 717.561035,670.853027 
	C725.967407,670.853027 734.042908,670.853027 742.542908,670.853027 
	C742.542908,673.099365 742.543213,674.735168 742.542908,676.370972 
	C742.537292,703.188171 742.447754,730.005859 742.597534,756.822144 
	C742.627014,762.113892 743.192810,767.473389 744.178284,772.675232 
	C746.839844,786.723633 753.981567,797.572144 768.257446,801.839966 
	C788.103882,807.773132 807.741211,806.016541 826.932678,798.579651 
	C828.170471,798.100037 829.849426,796.878784 830.009521,795.806396 
	C830.979309,789.307678 831.567139,782.751892 832.313049,775.936462 
	C825.857361,777.830811 820.152344,779.504822 813.603760,781.341919 
M334.273315,793.917725 
	C350.015411,745.455505 365.757507,696.993286 381.644806,648.083984 
	C372.268799,648.083984 363.812897,648.083984 355.188171,648.083984 
	C354.736267,649.417419 354.287323,650.656067 353.894928,651.912292 
	C340.560486,694.603882 327.250153,737.302979 313.830170,779.967590 
	C313.315765,781.602966 311.752350,782.908386 310.677765,784.367554 
	C309.554871,782.977356 307.903381,781.757568 307.391785,780.170288 
	C302.801086,765.928345 298.420990,751.618652 293.959625,737.334900 
	C285.086517,708.926392 276.230316,680.512512 267.243683,652.139954 
	C266.738342,650.544495 265.169861,648.136536 264.006805,648.083862 
	C256.071960,647.724976 248.113144,647.895813 239.552750,647.895813 
	C240.314880,650.438171 240.840759,652.329468 241.447296,654.194641 
	C247.617661,673.168579 253.811752,692.134766 259.978546,711.109802 
	C269.383026,740.047241 278.733582,769.002319 288.265015,797.897827 
	C288.802155,799.526123 290.742828,801.848206 292.075012,801.878540 
	C305.208954,802.177185 318.352386,802.058960 331.582001,802.058960 
	C332.477142,799.384338 333.263794,797.033936 334.273315,793.917725 
M861.638489,773.500000 
	C861.638489,782.905273 861.638489,792.310486 861.638489,801.764648 
	C870.498108,801.764648 878.571167,801.764648 886.807373,801.764648 
	C886.807373,750.446350 886.807373,699.420959 886.807373,648.273560 
	C878.334045,648.273560 870.129700,648.273560 861.638123,648.273560 
	C861.638123,689.937866 861.638123,731.218933 861.638489,773.500000 
M342.110931,414.835022 
	C342.110931,421.421265 342.110931,428.007507 342.110931,434.502899 
	C364.713013,434.502899 386.564148,434.502899 408.535583,434.502899 
	C408.535583,426.488098 408.535583,418.883148 408.535583,411.435028 
	C408.187134,411.181915 408.053070,410.999207 407.917786,410.998291 
	C386.811493,410.854523 365.705017,410.685883 344.599030,410.733551 
	C343.767700,410.735443 342.941010,412.806549 342.110931,414.835022 
M921.179871,434.905609 
	C922.074463,434.216461 923.727722,433.547363 923.746521,432.835083 
	C923.938171,425.583130 923.863770,418.324127 923.863770,410.929230 
	C901.387634,410.929230 879.518005,410.929230 857.593140,410.929230 
	C857.593140,419.037689 857.593140,426.771271 857.593140,434.910522 
	C878.700745,434.910522 899.468445,434.910522 921.179871,434.905609 
M882.258057,621.035889 
	C889.613831,617.380859 890.591431,610.788879 890.001831,603.671021 
	C889.548340,598.195679 887.184021,593.515991 881.698425,591.715942 
	C875.191101,589.580627 868.472290,589.257385 862.924194,594.215210 
	C858.304932,598.343079 857.202209,608.011902 860.094360,614.317810 
	C863.530029,621.808716 870.383911,624.050537 882.258057,621.035889 
z"/>
<path fill="#A0E8B1" opacity="1.000000" stroke="none" 
	d="
M717.067078,86.673203 
	C717.099854,80.069695 717.099854,73.931870 717.099854,67.397552 
	C723.071472,67.397552 728.608398,67.397552 734.789062,67.397552 
	C734.789062,74.416084 734.789062,81.316109 734.789062,88.724373 
	C768.336426,88.724373 801.253784,88.724373 834.586792,88.724373 
	C834.586792,205.244003 834.586792,321.242065 834.586792,437.554382 
	C700.203125,437.554382 565.994019,437.554382 431.389313,437.554382 
	C431.389313,321.547852 431.389313,205.678223 431.389313,89.067825 
	C464.652802,89.067825 498.003754,89.067825 531.945068,89.067825 
	C531.945068,81.443520 531.945068,74.541992 531.945068,67.324219 
	C537.779297,67.324219 543.020203,67.324219 549.066040,67.324219 
	C549.066040,72.635727 549.377502,77.918465 548.974609,83.146141 
	C548.604980,87.941734 550.510681,88.983635 554.970825,88.972343 
	C607.289001,88.839912 659.607727,88.903839 711.926147,88.813805 
	C713.629822,88.810875 715.331604,87.721695 717.067078,86.673203 
M818.083374,212.500000 
	C818.083374,177.096191 818.083374,141.692383 818.083374,106.264709 
	C789.947510,106.264709 762.695618,106.264709 734.830933,106.264709 
	C734.830933,111.029015 734.830872,115.478981 734.830872,119.928947 
	C734.830872,131.865021 734.824585,131.618881 723.045105,131.922440 
	C718.000305,132.052460 716.779846,130.198914 717.027466,125.564430 
	C717.369507,119.161720 717.113342,112.727043 717.113342,106.299469 
	C660.694641,106.299469 605.134399,106.299469 548.930664,106.299469 
	C548.930664,114.869560 548.930664,123.096397 548.930664,131.474823 
	C543.044983,131.474823 537.807129,131.474823 531.960815,131.474823 
	C531.960815,122.925034 531.960815,114.689926 531.960815,106.377174 
	C503.653290,106.377174 475.960205,106.377174 448.243164,106.377174 
	C448.243164,211.055313 448.243164,315.293121 448.243164,419.752777 
	C571.579224,419.752777 694.588440,419.752777 818.083618,419.752777 
	C818.083618,350.736938 818.083618,282.118469 818.083374,212.500000 
z"/>
<path fill="#3782DF" opacity="1.000000" stroke="none" 
	d="
M744.000000,525.026611 
	C530.028870,525.026611 316.557709,525.026611 103.086586,525.025574 
	C101.253616,525.025574 99.413956,525.109253 97.588844,524.985474 
	C90.397827,524.497620 86.573318,520.239502 86.603714,512.850708 
	C86.633881,505.518890 90.608002,501.283508 97.807869,500.954041 
	C99.304672,500.885529 100.806976,500.934174 102.306747,500.934174 
	C456.092224,500.933685 809.877747,500.933716 1163.663208,500.934113 
	C1165.162964,500.934113 1166.665283,500.885712 1168.162231,500.952667 
	C1175.373413,501.275177 1179.358154,505.499817 1179.396362,512.820679 
	C1179.435181,520.216736 1175.620361,524.486145 1168.441162,524.983765 
	C1166.616333,525.110168 1164.776489,525.025452 1162.943481,525.025513 
	C1023.462341,525.026611 883.981140,525.026550 744.000000,525.026611 
z"/>
<path fill="#3983DF" opacity="1.000000" stroke="none" 
	d="
M448.000549,735.117798 
	C441.534637,735.117798 435.568634,735.117798 429.672302,735.117798 
	C426.319916,757.125183 435.685059,777.062012 460.264801,781.954895 
	C483.122498,786.504883 504.940552,782.822266 525.619812,772.169983 
	C527.063477,771.426270 528.515747,770.699158 530.734680,769.573303 
	C530.000977,776.802612 529.530334,783.343079 528.528992,789.801208 
	C528.312622,791.196899 526.389587,792.671143 524.908447,793.475037 
	C507.941071,802.685303 489.659790,806.378418 470.512726,805.381653 
	C462.584808,804.968994 454.522827,804.105408 446.863525,802.125244 
	C423.872955,796.181396 409.453064,781.174133 405.365967,757.858643 
	C401.496643,735.785645 401.428284,713.283386 405.464935,691.238220 
	C410.645721,662.944336 429.705200,646.642517 458.539429,644.216003 
	C473.623016,642.946716 488.603241,643.644043 502.470978,650.605164 
	C521.935059,660.375488 530.594666,677.583557 532.699585,698.145935 
	C533.926697,710.133850 532.922974,722.350098 532.922974,735.117737 
	C503.999084,735.117737 476.249756,735.117737 448.000549,735.117798 
M481.500000,715.954529 
	C490.570892,715.954529 499.641815,715.954529 508.934174,715.954529 
	C509.007233,696.966614 508.350769,678.543457 489.514984,669.294617 
	C473.759857,661.558533 456.617645,661.441284 442.272186,672.816101 
	C428.678101,683.595154 428.200104,699.665833 429.040436,715.954529 
	C446.569397,715.954529 463.534698,715.954529 481.500000,715.954529 
z"/>
<path fill="#3983DF" opacity="1.000000" stroke="none" 
	d="
M117.304779,652.246704 
	C140.197723,641.147400 163.444748,640.388367 186.323639,649.873596 
	C208.071960,658.890076 216.788467,677.820801 218.793091,699.971008 
	C219.821976,711.339661 218.973618,722.878296 218.973618,734.920898 
	C183.689758,734.920898 149.645142,734.920898 115.699493,734.920898 
	C112.008224,757.660278 122.133522,777.174683 146.118744,781.955505 
	C169.344406,786.585022 191.457642,782.661743 212.397476,771.764709 
	C213.538239,771.171082 214.664780,770.550232 216.617569,769.502136 
	C215.871368,776.813660 215.395676,783.359558 214.391022,789.823364 
	C214.174438,791.216797 212.253448,792.688232 210.774124,793.490173 
	C193.956177,802.606445 175.832245,806.342712 156.858047,805.407654 
	C148.601395,805.000916 140.195831,804.070129 132.230789,801.965881 
	C109.681358,796.008606 95.320061,781.193848 91.383553,758.279785 
	C87.365814,734.893066 87.307808,711.158936 92.097046,687.756409 
	C95.208099,672.554199 103.649429,660.655518 117.304779,652.246704 
M178.497833,715.954895 
	C183.771378,715.954895 189.044937,715.954895 194.205719,715.954895 
	C197.321793,696.305420 190.110016,677.584473 176.728394,669.726929 
	C163.357040,661.875549 139.676865,663.291626 127.894386,672.647095 
	C117.968857,680.528259 111.603622,702.814819 115.694550,715.954895 
	C136.236252,715.954895 156.867340,715.954895 178.497833,715.954895 
z"/>
<path fill="#3983DF" opacity="1.000000" stroke="none" 
	d="
M567.319580,700.000000 
	C567.319763,682.531006 567.319763,665.561951 567.319763,648.240112 
	C575.967529,648.240112 584.187500,648.240112 592.538208,648.240112 
	C592.538208,659.226440 592.538208,670.156311 592.538208,681.155701 
	C592.817871,680.741516 593.340271,680.247742 593.528503,679.648865 
	C601.574585,654.052856 621.767334,643.721497 646.405518,644.316589 
	C656.290466,644.555359 665.992981,645.971191 674.677246,651.305664 
	C687.217712,659.008789 692.482727,671.174316 694.813354,684.893433 
	C695.867493,691.098389 696.314514,697.473145 696.344482,703.774109 
	C696.491699,734.772644 696.406555,765.772156 696.403442,796.771362 
	C696.403259,798.406494 696.403442,800.041626 696.403442,801.865784 
	C687.763367,801.865784 679.647888,801.865784 670.822632,801.865784 
	C670.822632,799.956116 670.822571,798.197876 670.822632,796.439575 
	C670.823792,766.606995 670.975586,736.773132 670.706543,706.942993 
	C670.648682,700.526001 669.616272,693.988098 668.076172,687.741821 
	C665.119141,675.749329 657.237488,668.480469 644.910828,666.597656 
	C632.397156,664.686218 620.264709,665.540283 609.525391,673.195312 
	C598.862183,680.796021 592.836487,690.722717 592.954529,704.338501 
	C593.218750,734.835388 593.037231,765.336182 593.037231,795.835388 
	C593.037231,797.655029 593.037231,799.474670 593.037231,801.678223 
	C584.570801,801.678223 576.334778,801.678223 567.319458,801.678223 
	C567.319458,768.009949 567.319458,734.255005 567.319580,700.000000 
z"/>
<path fill="#3983DF" opacity="1.000000" stroke="none" 
	d="
M1068.779053,672.165527 
	C1079.704224,706.111023 1090.510376,739.678650 1101.320068,773.245178 
	C1101.473022,773.720215 1101.573730,774.256348 1101.866455,774.633911 
	C1102.775513,775.806030 1103.765381,776.915405 1104.723877,778.049072 
	C1105.566528,776.973938 1106.765015,776.024231 1107.195435,774.803772 
	C1110.514648,765.392883 1113.693604,755.932434 1116.899902,746.481812 
	C1127.535767,715.132385 1138.219482,683.799011 1148.716797,652.403259 
	C1149.833740,649.062988 1151.167236,647.606079 1154.898438,647.787292 
	C1161.858643,648.125244 1168.846924,647.884338 1176.440430,647.884338 
	C1175.774902,650.166260 1175.350830,651.901489 1174.766968,653.581238 
	C1151.830933,719.574585 1128.853516,785.553711 1106.007568,851.578308 
	C1104.841797,854.947632 1103.380249,856.274536 1099.715576,856.097839 
	C1092.913940,855.769958 1086.085205,856.003906 1078.451294,856.003906 
	C1085.367310,835.873108 1092.093872,816.293640 1099.105835,795.883545 
	C1095.580688,795.883545 1092.505615,795.646301 1089.483643,795.945068 
	C1085.891357,796.300232 1084.234009,794.967651 1083.068359,791.494812 
	C1072.165649,759.008850 1061.075195,726.585876 1050.037354,694.145203 
	C1045.536499,680.916870 1041.026978,667.691467 1036.533081,654.460693 
	C1035.898560,652.592651 1035.331787,650.701660 1034.569580,648.305542 
	C1043.573608,648.305542 1052.097168,648.305542 1060.976807,648.305542 
	C1063.497437,656.009033 1066.078735,663.898254 1068.779053,672.165527 
z"/>
<path fill="#3A84DF" opacity="1.000000" stroke="none" 
	d="
M951.753113,593.677429 
	C974.085754,585.452881 995.888367,587.243408 1017.525391,594.917847 
	C1018.621094,595.306580 1019.861023,596.813293 1020.054382,597.963989 
	C1021.013062,603.667358 1021.642517,609.426147 1022.471802,615.809998 
	C1009.491150,611.213867 996.783020,608.893250 983.682495,610.048279 
	C979.258667,610.438232 974.681396,611.178406 970.585999,612.799072 
	C959.571411,617.157837 954.778381,628.140381 957.288025,641.895142 
	C959.411316,653.532593 959.411377,653.532593 971.025146,653.532593 
	C986.025024,653.532593 1001.024963,653.532593 1016.024841,653.532593 
	C1017.822754,653.532593 1019.620667,653.532593 1021.833984,653.532593 
	C1021.040222,660.482666 1020.309448,666.881531 1019.493408,674.026550 
	C1009.945557,674.026550 1000.523193,674.026550 991.100830,674.026550 
	C981.808228,674.026550 972.515625,674.026550 962.745850,674.026550 
	C962.745850,716.791687 962.745850,759.045349 962.745850,801.680054 
	C954.063293,801.680054 945.855469,801.680054 937.241150,801.680054 
	C937.241150,759.375488 937.241150,717.106323 937.241150,674.269653 
	C928.627197,674.269653 920.391418,674.269653 911.840088,674.269653 
	C911.840088,667.276672 911.840088,660.842896 911.840088,653.941650 
	C922.334045,653.941650 932.866211,653.941650 944.880615,653.941650 
	C932.293579,642.136902 929.143738,628.792725 933.710938,613.705994 
	C936.515991,604.440186 942.602844,597.870605 951.753113,593.677429 
z"/>
<path fill="#3983DF" opacity="1.000000" stroke="none" 
	d="
M814.025513,781.260376 
	C820.152344,779.504822 825.857361,777.830811 832.313049,775.936462 
	C831.567139,782.751892 830.979309,789.307678 830.009521,795.806396 
	C829.849426,796.878784 828.170471,798.100037 826.932678,798.579651 
	C807.741211,806.016541 788.103882,807.773132 768.257446,801.839966 
	C753.981567,797.572144 746.839844,786.723633 744.178284,772.675232 
	C743.192810,767.473389 742.627014,762.113892 742.597534,756.822144 
	C742.447754,730.005859 742.537292,703.188171 742.542908,676.370972 
	C742.543213,674.735168 742.542908,673.099365 742.542908,670.853027 
	C734.042908,670.853027 725.967407,670.853027 717.561035,670.853027 
	C717.561035,663.697021 717.561035,657.147522 717.561035,650.042969 
	C725.903198,650.042969 734.134521,650.042969 742.665710,650.042969 
	C742.665710,636.241516 742.665710,622.984314 742.665710,609.264587 
	C751.227295,608.122925 759.539490,607.014465 767.981323,605.888794 
	C767.981323,620.635437 767.981323,634.899231 767.981323,649.813782 
	C788.620911,649.813782 809.480774,649.813782 830.830139,649.813782 
	C830.125854,656.392639 829.734619,662.328491 828.655090,668.136414 
	C828.448303,669.249084 825.540222,670.571350 823.865417,670.589478 
	C807.044128,670.770874 790.220154,670.699890 773.396912,670.699890 
	C771.770325,670.699890 770.143677,670.699890 768.203247,670.699890 
	C768.110779,672.795349 767.977722,674.416809 767.976807,676.038391 
	C767.963501,701.856201 767.961975,727.674072 767.976746,753.491882 
	C767.977905,755.487610 767.953430,757.506104 768.223511,759.475220 
	C770.292297,774.559753 776.449219,780.978577 791.770264,782.319946 
	C798.964417,782.949768 806.320862,781.725769 814.025513,781.260376 
z"/>
<path fill="#3983DF" opacity="1.000000" stroke="none" 
	d="
M334.161865,794.300598 
	C333.263794,797.033936 332.477142,799.384338 331.582001,802.058960 
	C318.352386,802.058960 305.208954,802.177185 292.075012,801.878540 
	C290.742828,801.848206 288.802155,799.526123 288.265015,797.897827 
	C278.733582,769.002319 269.383026,740.047241 259.978546,711.109802 
	C253.811752,692.134766 247.617661,673.168579 241.447296,654.194641 
	C240.840759,652.329468 240.314880,650.438171 239.552750,647.895813 
	C248.113144,647.895813 256.071960,647.724976 264.006805,648.083862 
	C265.169861,648.136536 266.738342,650.544495 267.243683,652.139954 
	C276.230316,680.512512 285.086517,708.926392 293.959625,737.334900 
	C298.420990,751.618652 302.801086,765.928345 307.391785,780.170288 
	C307.903381,781.757568 309.554871,782.977356 310.677765,784.367554 
	C311.752350,782.908386 313.315765,781.602966 313.830170,779.967590 
	C327.250153,737.302979 340.560486,694.603882 353.894928,651.912292 
	C354.287323,650.656067 354.736267,649.417419 355.188171,648.083984 
	C363.812897,648.083984 372.268799,648.083984 381.644806,648.083984 
	C365.757507,696.993286 350.015411,745.455505 334.161865,794.300598 
z"/>
<path fill="#3782DF" opacity="1.000000" stroke="none" 
	d="
M861.638306,773.000000 
	C861.638123,731.218933 861.638123,689.937866 861.638123,648.273560 
	C870.129700,648.273560 878.334045,648.273560 886.807373,648.273560 
	C886.807373,699.420959 886.807373,750.446350 886.807373,801.764648 
	C878.571167,801.764648 870.498108,801.764648 861.638489,801.764648 
	C861.638489,792.310486 861.638489,782.905273 861.638306,773.000000 
z"/>
<path fill="#3A84DF" opacity="1.000000" stroke="none" 
	d="
M342.111542,414.374268 
	C342.941010,412.806549 343.767700,410.735443 344.599030,410.733551 
	C365.705017,410.685883 386.811493,410.854523 407.917786,410.998291 
	C408.053070,410.999207 408.187134,411.181915 408.535583,411.435028 
	C408.535583,418.883148 408.535583,426.488098 408.535583,434.502899 
	C386.564148,434.502899 364.713013,434.502899 342.110931,434.502899 
	C342.110931,428.007507 342.110931,421.421265 342.111542,414.374268 
z"/>
<path fill="#3A84DF" opacity="1.000000" stroke="none" 
	d="
M920.708008,434.908081 
	C899.468445,434.910522 878.700745,434.910522 857.593140,434.910522 
	C857.593140,426.771271 857.593140,419.037689 857.593140,410.929230 
	C879.518005,410.929230 901.387634,410.929230 923.863770,410.929230 
	C923.863770,418.324127 923.938171,425.583130 923.746521,432.835083 
	C923.727722,433.547363 922.074463,434.216461 920.708008,434.908081 
z"/>
<path fill="#3983DF" opacity="1.000000" stroke="none" 
	d="
M881.899536,621.184387 
	C870.383911,624.050537 863.530029,621.808716 860.094360,614.317810 
	C857.202209,608.011902 858.304932,598.343079 862.924194,594.215210 
	C868.472290,589.257385 875.191101,589.580627 881.698425,591.715942 
	C887.184021,593.515991 889.548340,598.195679 890.001831,603.671021 
	C890.591431,610.788879 889.613831,617.380859 881.899536,621.184387 
z"/>
<path fill="#FFFFFF" opacity="1.000000" stroke="none" 
	d="
M818.083496,213.000000 
	C818.083618,282.118469 818.083618,350.736938 818.083618,419.752777 
	C694.588440,419.752777 571.579224,419.752777 448.243164,419.752777 
	C448.243164,315.293121 448.243164,211.055313 448.243164,106.377174 
	C475.960205,106.377174 503.653290,106.377174 531.960815,106.377174 
	C531.960815,114.689926 531.960815,122.925034 531.960815,131.474823 
	C537.807129,131.474823 543.044983,131.474823 548.930664,131.474823 
	C548.930664,123.096397 548.930664,114.869560 548.930664,106.299469 
	C605.134399,106.299469 660.694641,106.299469 717.113342,106.299469 
	C717.113342,112.727043 717.369507,119.161720 717.027466,125.564430 
	C716.779846,130.198914 718.000305,132.052460 723.045105,131.922440 
	C734.824585,131.618881 734.830872,131.865021 734.830872,119.928947 
	C734.830872,115.478981 734.830933,111.029015 734.830933,106.264709 
	C762.695618,106.264709 789.947510,106.264709 818.083374,106.264709 
	C818.083374,141.692383 818.083374,177.096191 818.083496,213.000000 
M568.500000,167.978149 
	C634.233582,167.978149 699.967163,167.978149 765.780884,167.978149 
	C765.780884,161.957886 765.780884,156.721954 765.780884,151.336029 
	C678.090271,151.336029 590.751892,151.336029 503.329041,151.336029 
	C503.329041,156.977615 503.329041,162.217499 503.329041,167.321716 
	C503.946869,167.594025 504.240631,167.836319 504.535034,167.837158 
	C525.523315,167.896423 546.511658,167.936478 568.500000,167.978149 
M752.335693,303.002075 
	C741.408203,303.002075 730.480713,303.002075 719.431519,303.002075 
	C719.431519,315.996552 719.431519,328.349365 719.431519,340.728760 
	C732.076233,340.728760 744.307556,340.728760 757.067566,340.728760 
	C757.067566,328.789795 757.149841,317.182953 756.904541,305.583008 
	C756.885864,304.697998 754.549438,303.862000 752.335693,303.002075 
M668.500122,303.001740 
	C662.428650,303.001740 656.357178,303.001740 650.386597,303.001740 
	C650.386597,316.130524 650.386597,328.360687 650.386597,340.610626 
	C663.096497,340.610626 675.441284,340.610626 687.725342,340.610626 
	C687.725342,327.923584 687.725342,315.699005 687.725342,303.001740 
	C681.407715,303.001740 675.453796,303.001740 668.500122,303.001740 
M580.846497,326.495819 
	C580.846497,331.235504 580.846497,335.975220 580.846497,340.720062 
	C593.956970,340.720062 606.172913,340.720062 618.499146,340.720062 
	C618.499146,328.022278 618.499146,315.679565 618.499146,303.340179 
	C605.843323,303.340179 593.615173,303.340179 580.846130,303.340179 
	C580.846130,310.944031 580.846130,318.220398 580.846497,326.495819 
M549.931519,308.646118 
	C549.849365,306.885162 549.767212,305.124207 549.682983,303.318420 
	C536.900940,303.318420 524.671448,303.318420 512.278259,303.318420 
	C512.278259,315.976746 512.278259,328.313324 512.278259,340.738617 
	C524.925049,340.738617 537.144958,340.738617 549.931396,340.738617 
	C549.931396,330.147888 549.931396,319.879089 549.931519,308.646118 
M731.511597,232.973297 
	C727.442017,232.973297 723.372437,232.973297 719.377441,232.973297 
	C719.377441,246.103043 719.377441,258.330963 719.377441,270.581360 
	C732.087708,270.581360 744.436279,270.581360 756.719971,270.581360 
	C756.719971,257.904907 756.719971,245.679245 756.719971,232.973236 
	C748.409485,232.973236 740.459106,232.973236 731.511597,232.973297 
M677.475708,271.029053 
	C680.892517,271.029053 684.309326,271.029053 687.762573,271.029053 
	C687.762573,257.977234 687.762573,245.752441 687.762573,233.387329 
	C675.083435,233.387329 662.741028,233.387329 650.349609,233.387329 
	C650.349609,246.030289 650.349609,258.256927 650.349609,271.029083 
	C659.267944,271.029083 667.874573,271.029083 677.475708,271.029053 
M617.145874,233.036148 
	C605.227234,233.036148 593.308594,233.036148 581.298218,233.036148 
	C581.298218,245.998657 581.298218,258.334381 581.298218,270.673309 
	C593.974365,270.673309 606.195862,270.673309 618.923767,270.673309 
	C618.923767,259.548767 618.959473,248.773010 618.884338,237.998032 
	C618.873291,236.422729 618.333374,234.851120 617.145874,233.036148 
M528.501465,232.972183 
	C523.082275,232.972183 517.663025,232.972183 512.179077,232.972183 
	C512.179077,245.999908 512.179077,258.219391 512.179077,270.623901 
	C524.844604,270.623901 537.181580,270.623901 549.616943,270.623901 
	C549.616943,257.994934 549.616943,245.774063 549.616943,233.696259 
	C549.020325,233.403168 548.733826,233.141327 548.444336,233.138000 
	C542.130066,233.065384 535.815552,233.021500 528.501465,232.972183 
z"/>
<path fill="#FEFEFF" opacity="1.000000" stroke="none" 
	d="
M481.000000,715.954529 
	C463.534698,715.954529 446.569397,715.954529 429.040436,715.954529 
	C428.200104,699.665833 428.678101,683.595154 442.272186,672.816101 
	C456.617645,661.441284 473.759857,661.558533 489.514984,669.294617 
	C508.350769,678.543457 509.007233,696.966614 508.934174,715.954529 
	C499.641815,715.954529 490.570892,715.954529 481.000000,715.954529 
z"/>
<path fill="#FEFEFF" opacity="1.000000" stroke="none" 
	d="
M177.998138,715.954895 
	C156.867340,715.954895 136.236252,715.954895 115.694550,715.954895 
	C111.603622,702.814819 117.968857,680.528259 127.894386,672.647095 
	C139.676865,663.291626 163.357040,661.875549 176.728394,669.726929 
	C190.110016,677.584473 197.321793,696.305420 194.205719,715.954895 
	C189.044937,715.954895 183.771378,715.954895 177.998138,715.954895 
z"/>
<path fill="#9EE7AF" opacity="1.000000" stroke="none" 
	d="
M568.000000,167.978119 
	C546.511658,167.936478 525.523315,167.896423 504.535034,167.837158 
	C504.240631,167.836319 503.946869,167.594025 503.329041,167.321716 
	C503.329041,162.217499 503.329041,156.977615 503.329041,151.336029 
	C590.751892,151.336029 678.090271,151.336029 765.780884,151.336029 
	C765.780884,156.721954 765.780884,161.957886 765.780884,167.978149 
	C699.967163,167.978149 634.233582,167.978149 568.000000,167.978119 
z"/>
<path fill="#9EE7AF" opacity="1.000000" stroke="none" 
	d="
M752.813049,303.002625 
	C754.549438,303.862000 756.885864,304.697998 756.904541,305.583008 
	C757.149841,317.182953 757.067566,328.789795 757.067566,340.728760 
	C744.307556,340.728760 732.076233,340.728760 719.431519,340.728760 
	C719.431519,328.349365 719.431519,315.996552 719.431519,303.002075 
	C730.480713,303.002075 741.408203,303.002075 752.813049,303.002625 
z"/>
<path fill="#9EE7AF" opacity="1.000000" stroke="none" 
	d="
M669.000000,303.001740 
	C675.453796,303.001740 681.407715,303.001740 687.725342,303.001740 
	C687.725342,315.699005 687.725342,327.923584 687.725342,340.610626 
	C675.441284,340.610626 663.096497,340.610626 650.386597,340.610626 
	C650.386597,328.360687 650.386597,316.130524 650.386597,303.001740 
	C656.357178,303.001740 662.428650,303.001740 669.000000,303.001740 
z"/>
<path fill="#9FE7B0" opacity="1.000000" stroke="none" 
	d="
M580.846313,325.996277 
	C580.846130,318.220398 580.846130,310.944031 580.846130,303.340179 
	C593.615173,303.340179 605.843323,303.340179 618.499146,303.340179 
	C618.499146,315.679565 618.499146,328.022278 618.499146,340.720062 
	C606.172913,340.720062 593.956970,340.720062 580.846497,340.720062 
	C580.846497,335.975220 580.846497,331.235504 580.846313,325.996277 
z"/>
<path fill="#9FE7B0" opacity="1.000000" stroke="none" 
	d="
M549.931458,309.128204 
	C549.931396,319.879089 549.931396,330.147888 549.931396,340.738617 
	C537.144958,340.738617 524.925049,340.738617 512.278259,340.738617 
	C512.278259,328.313324 512.278259,315.976746 512.278259,303.318420 
	C524.671448,303.318420 536.900940,303.318420 549.682983,303.318420 
	C549.767212,305.124207 549.849365,306.885162 549.931458,309.128204 
z"/>
<path fill="#9EE7AF" opacity="1.000000" stroke="none" 
	d="
M732.010193,232.973267 
	C740.459106,232.973236 748.409485,232.973236 756.719971,232.973236 
	C756.719971,245.679245 756.719971,257.904907 756.719971,270.581360 
	C744.436279,270.581360 732.087708,270.581360 719.377441,270.581360 
	C719.377441,258.330963 719.377441,246.103043 719.377441,232.973297 
	C723.372437,232.973297 727.442017,232.973297 732.010193,232.973267 
z"/>
<path fill="#9EE7AF" opacity="1.000000" stroke="none" 
	d="
M676.978455,271.029053 
	C667.874573,271.029083 659.267944,271.029083 650.349609,271.029083 
	C650.349609,258.256927 650.349609,246.030289 650.349609,233.387329 
	C662.741028,233.387329 675.083435,233.387329 687.762573,233.387329 
	C687.762573,245.752441 687.762573,257.977234 687.762573,271.029053 
	C684.309326,271.029053 680.892517,271.029053 676.978455,271.029053 
z"/>
<path fill="#9FE7B0" opacity="1.000000" stroke="none" 
	d="
M617.592041,233.156982 
	C618.333374,234.851120 618.873291,236.422729 618.884338,237.998032 
	C618.959473,248.773010 618.923767,259.548767 618.923767,270.673309 
	C606.195862,270.673309 593.974365,270.673309 581.298218,270.673309 
	C581.298218,258.334381 581.298218,245.998657 581.298218,233.036148 
	C593.308594,233.036148 605.227234,233.036148 617.592041,233.156982 
z"/>
<path fill="#9FE7AF" opacity="1.000000" stroke="none" 
	d="
M529.001221,232.972153 
	C535.815552,233.021500 542.130066,233.065384 548.444336,233.138000 
	C548.733826,233.141327 549.020325,233.403168 549.616943,233.696259 
	C549.616943,245.774063 549.616943,257.994934 549.616943,270.623901 
	C537.181580,270.623901 524.844604,270.623901 512.179077,270.623901 
	C512.179077,258.219391 512.179077,245.999908 512.179077,232.972183 
	C517.663025,232.972183 523.082275,232.972183 529.001221,232.972153 
z"/>
</svg>